<?xml version="1.0" encoding="us-ascii" standalone="no"?><svg xmlns="http://www.w3.org/2000/svg" xmlns:xlink="http://www.w3.org/1999/xlink" contentStyleType="text/css" height="1008px" preserveAspectRatio="none" style="width:1420px;height:1008px;background:#FFFFFF;" version="1.1" viewBox="0 0 1420 1008" width="1420px" zoomAndPan="magnify"><defs/><g><!--cluster MII_Modul_Biobank--><g id="cluster_MII_Modul_Biobank"><path d="M860.5,101 L1005.5,101 A3.75,3.75 0 0 1 1008,103.5 L1015,123.2969 L1015.5,123.2969 A2.5,2.5 0 0 1 1018,125.7969 L1018,201.5 A2.5,2.5 0 0 1 1015.5,204 L860.5,204 A2.5,2.5 0 0 1 858,201.5 L858,103.5 A2.5,2.5 0 0 1 860.5,101 " fill="none" style="stroke:#000000;stroke-width:1.5;"/><line style="stroke:#000000;stroke-width:1.5;" x1="858" x2="1015" y1="123.2969" y2="123.2969"/><text fill="#000000" font-family="sans-serif" font-size="14" font-weight="bold" lengthAdjust="spacing" textLength="144" x="862" y="115.9951">MII_Modul_Biobank</text></g><!--cluster MII_Modul_Pathologiebefund--><g id="cluster_MII_Modul_Pathologiebefund"><path d="M547.5,6 L769.5,6 A3.75,3.75 0 0 1 772,8.5 L779,28.2969 L792.5,28.2969 A2.5,2.5 0 0 1 795,30.7969 L795,193.5 A2.5,2.5 0 0 1 792.5,196 L547.5,196 A2.5,2.5 0 0 1 545,193.5 L545,8.5 A2.5,2.5 0 0 1 547.5,6 " fill="none" style="stroke:#000000;stroke-width:1.5;"/><line style="stroke:#000000;stroke-width:1.5;" x1="545" x2="779" y1="28.2969" y2="28.2969"/><text fill="#000000" font-family="sans-serif" font-size="14" font-weight="bold" lengthAdjust="spacing" textLength="221" x="549" y="20.9951">MII_Modul_Pathologiebefund</text></g><!--cluster MII_Modul_Molekulargenetischer_Befundbericht--><g id="cluster_MII_Modul_Molekulargenetischer_Befundbericht"><path d="M8.5,109 L381.5,109 A3.75,3.75 0 0 1 384,111.5 L391,131.2969 L391.5,131.2969 A2.5,2.5 0 0 1 394,133.7969 L394,336.5 A2.5,2.5 0 0 1 391.5,339 L8.5,339 A2.5,2.5 0 0 1 6,336.5 L6,111.5 A2.5,2.5 0 0 1 8.5,109 " fill="none" style="stroke:#000000;stroke-width:1.5;"/><line style="stroke:#000000;stroke-width:1.5;" x1="6" x2="391" y1="131.2969" y2="131.2969"/><text fill="#000000" font-family="sans-serif" font-size="14" font-weight="bold" lengthAdjust="spacing" textLength="372" x="10" y="123.9951">MII_Modul_Molekulargenetischer_Befundbericht</text></g><!--cluster MII_Modul_Onkologie--><g id="cluster_MII_Modul_Onkologie"><path d="M1121.5,244 L1283.5,244 A3.75,3.75 0 0 1 1286,246.5 L1293,266.2969 L1410.5,266.2969 A2.5,2.5 0 0 1 1413,268.7969 L1413,471.5 A2.5,2.5 0 0 1 1410.5,474 L1121.5,474 A2.5,2.5 0 0 1 1119,471.5 L1119,246.5 A2.5,2.5 0 0 1 1121.5,244 " fill="none" style="stroke:#000000;stroke-width:1.5;"/><line style="stroke:#000000;stroke-width:1.5;" x1="1119" x2="1293" y1="266.2969" y2="266.2969"/><text fill="#000000" font-family="sans-serif" font-size="14" font-weight="bold" lengthAdjust="spacing" textLength="161" x="1123" y="258.9951">MII_Modul_Onkologie</text></g><!--cluster MII_Modul_Molekulares_Tumorboard--><g id="cluster_MII_Modul_Molekulares_Tumorboard"><path d="M245.5,371 L527.5,371 A3.75,3.75 0 0 1 530,373.5 L537,393.2969 L1049.5,393.2969 A2.5,2.5 0 0 1 1052,395.7969 L1052,998.5 A2.5,2.5 0 0 1 1049.5,1001 L245.5,1001 A2.5,2.5 0 0 1 243,998.5 L243,373.5 A2.5,2.5 0 0 1 245.5,371 " fill="none" style="stroke:#000000;stroke-width:1.5;"/><line style="stroke:#000000;stroke-width:1.5;" x1="243" x2="537" y1="393.2969" y2="393.2969"/><text fill="#000000" font-family="sans-serif" font-size="14" font-weight="bold" lengthAdjust="spacing" textLength="281" x="247" y="385.9951">MII_Modul_Molekulares_Tumorboard</text></g><!--cluster MII_MTB_Neuprofilierungen--><g id="cluster_MII_MTB_Neuprofilierungen"><path d="M389.5,514 L601.5,514 A3.75,3.75 0 0 1 604,516.5 L611,536.2969 L785.5,536.2969 A2.5,2.5 0 0 1 788,538.7969 L788,710.5 A2.5,2.5 0 0 1 785.5,713 L389.5,713 A2.5,2.5 0 0 1 387,710.5 L387,516.5 A2.5,2.5 0 0 1 389.5,514 " fill="none" style="stroke:#000000;stroke-width:1.5;"/><line style="stroke:#000000;stroke-width:1.5;" x1="387" x2="611" y1="536.2969" y2="536.2969"/><text fill="#000000" font-family="sans-serif" font-size="14" font-weight="bold" lengthAdjust="spacing" textLength="211" x="391" y="528.9951">MII_MTB_Neuprofilierungen</text></g><g id="elem_Bioprobe"><rect fill="#F1F1F1" height="36.2969" style="stroke:#181818;stroke-width:0.5;" width="77" x="882.5" y="144"/><text fill="#000000" font-family="sans-serif" font-size="14" lengthAdjust="spacing" textLength="63" x="889.5" y="158.9951">Bioprobe</text><line style="stroke:#181818;stroke-width:0.5;" x1="883.5" x2="958.5" y1="164.2969" y2="164.2969"/></g><g id="elem_MII_Pathologie_Befundbericht"><rect fill="#F1F1F1" height="36.2969" style="stroke:#181818;stroke-width:0.5;" width="217" x="561.5" y="41"/><text fill="#000000" font-family="sans-serif" font-size="14" lengthAdjust="spacing" textLength="203" x="568.5" y="55.9951">MII_Pathologie_Befundbericht</text><line style="stroke:#181818;stroke-width:0.5;" x1="562.5" x2="777.5" y1="61.2969" y2="61.2969"/></g><g id="elem_MII_Patho_Finding"><rect fill="#F1F1F1" height="36.2969" style="stroke:#181818;stroke-width:0.5;" width="136" x="602" y="144"/><text fill="#000000" font-family="sans-serif" font-size="14" lengthAdjust="spacing" textLength="122" x="609" y="158.9951">MII_Patho_Finding</text><line style="stroke:#181818;stroke-width:0.5;" x1="603" x2="737" y1="164.2969" y2="164.2969"/></g><g id="elem_MII_Molekulargenetischer_Befundbericht"><rect fill="#F1F1F1" height="36.2969" style="stroke:#181818;stroke-width:0.5;" width="293" x="53.5" y="144"/><text fill="#000000" font-family="sans-serif" font-size="14" lengthAdjust="spacing" textLength="279" x="60.5" y="158.9951">MII_Molekulargenetischer_Befundbericht</text><line style="stroke:#181818;stroke-width:0.5;" x1="54.5" x2="345.5" y1="164.2969" y2="164.2969"/></g><g id="elem_MII_Variante"><rect fill="#F1F1F1" height="36.2969" style="stroke:#181818;stroke-width:0.5;" width="95" x="102.5" y="287"/><text fill="#000000" font-family="sans-serif" font-size="14" lengthAdjust="spacing" textLength="81" x="109.5" y="301.9951">MII_Variante</text><line style="stroke:#181818;stroke-width:0.5;" x1="103.5" x2="196.5" y1="307.2969" y2="307.2969"/></g><g id="elem_MII_Onko_Diagnose"><rect fill="#F1F1F1" height="36.2969" style="stroke:#181818;stroke-width:0.5;" width="149" x="1178.5" y="287"/><text fill="#000000" font-family="sans-serif" font-size="14" lengthAdjust="spacing" textLength="135" x="1185.5" y="301.9951">MII_Onko_Diagnose</text><line style="stroke:#181818;stroke-width:0.5;" x1="1179.5" x2="1326.5" y1="307.2969" y2="307.2969"/></g><g id="elem_MII_Onko_Systemische_Therapie"><rect fill="#F1F1F1" height="36.2969" style="stroke:#181818;stroke-width:0.5;" width="239" x="1150.5" y="414"/><text fill="#000000" font-family="sans-serif" font-size="14" lengthAdjust="spacing" textLength="225" x="1157.5" y="428.9951">MII_Onko_Systemische_Therapie</text><line style="stroke:#181818;stroke-width:0.5;" x1="1151.5" x2="1388.5" y1="434.2969" y2="434.2969"/></g><g id="elem_Probe"><rect fill="#F1F1F1" height="36.2969" style="stroke:#181818;stroke-width:0.5;" width="55" x="838.5" y="414"/><text fill="#000000" font-family="sans-serif" font-size="14" lengthAdjust="spacing" textLength="41" x="845.5" y="428.9951">Probe</text><line style="stroke:#181818;stroke-width:0.5;" x1="839.5" x2="892.5" y1="434.2969" y2="434.2969"/></g><g id="elem_IHC_Befund"><rect fill="#F1F1F1" height="36.2969" style="stroke:#181818;stroke-width:0.5;" width="94" x="709" y="414"/><text fill="#000000" font-family="sans-serif" font-size="14" lengthAdjust="spacing" textLength="80" x="716" y="428.9951">IHC_Befund</text><line style="stroke:#181818;stroke-width:0.5;" x1="710" x2="802" y1="434.2969" y2="434.2969"/></g><g id="elem_ISH_Befund"><rect fill="#F1F1F1" height="36.2969" style="stroke:#181818;stroke-width:0.5;" width="93" x="580.5" y="414"/><text fill="#000000" font-family="sans-serif" font-size="14" lengthAdjust="spacing" textLength="79" x="587.5" y="428.9951">ISH_Befund</text><line style="stroke:#181818;stroke-width:0.5;" x1="581.5" x2="672.5" y1="434.2969" y2="434.2969"/></g><g id="elem_NGS_Bericht"><rect fill="#F1F1F1" height="36.2969" style="stroke:#181818;stroke-width:0.5;" width="100" x="445" y="414"/><text fill="#000000" font-family="sans-serif" font-size="14" lengthAdjust="spacing" textLength="86" x="452" y="428.9951">NGS_Bericht</text><line style="stroke:#181818;stroke-width:0.5;" x1="446" x2="544" y1="434.2969" y2="434.2969"/></g><g id="elem_Einfache_Variante"><rect fill="#F1F1F1" height="36.2969" style="stroke:#181818;stroke-width:0.5;" width="136" x="274" y="414"/><text fill="#000000" font-family="sans-serif" font-size="14" lengthAdjust="spacing" textLength="122" x="281" y="428.9951">Einfache_Variante</text><line style="stroke:#181818;stroke-width:0.5;" x1="275" x2="409" y1="434.2969" y2="434.2969"/></g><g id="elem_RNA_Seq"><rect fill="#F1F1F1" height="36.2969" style="stroke:#181818;stroke-width:0.5;" width="77" x="276.5" y="557"/><text fill="#000000" font-family="sans-serif" font-size="14" lengthAdjust="spacing" textLength="63" x="283.5" y="571.9951">RNA_Seq</text><line style="stroke:#181818;stroke-width:0.5;" x1="277.5" x2="352.5" y1="577.2969" y2="577.2969"/></g><g id="elem_RNA_Fusion"><rect fill="#F1F1F1" height="36.2969" style="stroke:#181818;stroke-width:0.5;" width="96" x="267" y="653"/><text fill="#000000" font-family="sans-serif" font-size="14" lengthAdjust="spacing" textLength="82" x="274" y="667.9951">RNA_Fusion</text><line style="stroke:#181818;stroke-width:0.5;" x1="268" x2="362" y1="673.2969" y2="673.2969"/></g><g id="elem_DNA_Fusion"><rect fill="#F1F1F1" height="36.2969" style="stroke:#181818;stroke-width:0.5;" width="97" x="266.5" y="749"/><text fill="#000000" font-family="sans-serif" font-size="14" lengthAdjust="spacing" textLength="83" x="273.5" y="763.9951">DNA_Fusion</text><line style="stroke:#181818;stroke-width:0.5;" x1="267.5" x2="362.5" y1="769.2969" y2="769.2969"/></g><g id="elem_CopyNumberVariation"><rect fill="#F1F1F1" height="36.2969" style="stroke:#181818;stroke-width:0.5;" width="163" x="267.5" y="845"/><text fill="#000000" font-family="sans-serif" font-size="14" lengthAdjust="spacing" textLength="149" x="274.5" y="859.9951">CopyNumberVariation</text><line style="stroke:#181818;stroke-width:0.5;" x1="268.5" x2="429.5" y1="865.2969" y2="865.2969"/></g><g id="elem_FISH_Befund"><rect fill="#F1F1F1" height="36.2969" style="stroke:#181818;stroke-width:0.5;" width="101" x="282.5" y="941"/><text fill="#000000" font-family="sans-serif" font-size="14" lengthAdjust="spacing" textLength="87" x="289.5" y="955.9951">FISH_Befund</text><line style="stroke:#181818;stroke-width:0.5;" x1="283.5" x2="382.5" y1="961.2969" y2="961.2969"/></g><g id="elem_Diagnose"><rect fill="#F1F1F1" height="36.2969" style="stroke:#181818;stroke-width:0.5;" width="80" x="929" y="414"/><text fill="#000000" font-family="sans-serif" font-size="14" lengthAdjust="spacing" textLength="66" x="936" y="428.9951">Diagnose</text><line style="stroke:#181818;stroke-width:0.5;" x1="930" x2="1008" y1="434.2969" y2="434.2969"/></g><g id="elem_Vortherapie"><rect fill="#F1F1F1" height="36.2969" style="stroke:#181818;stroke-width:0.5;" width="94" x="922" y="557"/><text fill="#000000" font-family="sans-serif" font-size="14" lengthAdjust="spacing" textLength="80" x="929" y="571.9951">Vortherapie</text><line style="stroke:#181818;stroke-width:0.5;" x1="923" x2="1015" y1="577.2969" y2="577.2969"/></g><g id="elem_MTB_Systemische_Therapie"><rect fill="#F1F1F1" height="36.2969" style="stroke:#181818;stroke-width:0.5;" width="208" x="812" y="653"/><text fill="#000000" font-family="sans-serif" font-size="14" lengthAdjust="spacing" textLength="194" x="819" y="667.9951">MTB_Systemische_Therapie</text><line style="stroke:#181818;stroke-width:0.5;" x1="813" x2="1019" y1="673.2969" y2="673.2969"/></g><g id="elem_MTB_EpisodeOfCare"><rect fill="#F1F1F1" height="36.2969" style="stroke:#181818;stroke-width:0.5;" width="155" x="430.5" y="557"/><text fill="#000000" font-family="sans-serif" font-size="14" lengthAdjust="spacing" textLength="141" x="437.5" y="571.9951">MTB_EpisodeOfCare</text><line style="stroke:#181818;stroke-width:0.5;" x1="431.5" x2="584.5" y1="577.2969" y2="577.2969"/></g><g id="elem_Kosten&#252;bernahme"><rect fill="#F1F1F1" height="36.2969" style="stroke:#181818;stroke-width:0.5;" width="143" x="620.5" y="557"/><text fill="#000000" font-family="sans-serif" font-size="14" lengthAdjust="spacing" textLength="129" x="627.5" y="571.9951">Kosten&#252;bernahme</text><line style="stroke:#181818;stroke-width:0.5;" x1="621.5" x2="762.5" y1="577.2969" y2="577.2969"/></g><g id="elem_ResponseBefund"><rect fill="#F1F1F1" height="36.2969" style="stroke:#181818;stroke-width:0.5;" width="135" x="440.5" y="653"/><text fill="#000000" font-family="sans-serif" font-size="14" lengthAdjust="spacing" textLength="121" x="447.5" y="667.9951">ResponseBefund</text><line style="stroke:#181818;stroke-width:0.5;" x1="441.5" x2="574.5" y1="673.2969" y2="673.2969"/></g><g id="elem_Followup"><rect fill="#F1F1F1" height="36.2969" style="stroke:#181818;stroke-width:0.5;" width="75" x="610.5" y="653"/><text fill="#000000" font-family="sans-serif" font-size="14" lengthAdjust="spacing" textLength="61" x="617.5" y="667.9951">Followup</text><line style="stroke:#181818;stroke-width:0.5;" x1="611.5" x2="684.5" y1="673.2969" y2="673.2969"/></g><!--link MII_Pathologie_Befundbericht to MII_Patho_Finding--><!--reverse link Bioprobe to Probe--><g id="link_Bioprobe_Probe"><path codeLine="27" d="M888,198.13 C888,247.32 888,364.85 888,413.94 " fill="none" id="Bioprobe-backto-Probe" style="stroke:#181818;stroke-width:1.0;stroke-dasharray:7.0,7.0;"/><polygon fill="none" points="888,180.13,882,198.13,894,198.13,888,180.13" style="stroke:#181818;stroke-width:1.0;"/></g><!--reverse link MII_Patho_Finding to IHC_Befund--><g id="link_MII_Patho_Finding_IHC_Befund"><path codeLine="31" d="M723.5,198.13 C723.5,247.32 723.5,364.85 723.5,413.94 " fill="none" id="MII_Patho_Finding-backto-IHC_Befund" style="stroke:#181818;stroke-width:1.0;stroke-dasharray:7.0,7.0;"/><polygon fill="none" points="723.5,180.13,717.5,198.13,729.5,198.13,723.5,180.13" style="stroke:#181818;stroke-width:1.0;"/></g><!--reverse link MII_Patho_Finding to ISH_Befund--><g id="link_MII_Patho_Finding_ISH_Befund"><path codeLine="32" d="M637.75,198.13 C637.75,247.32 637.75,364.85 637.75,413.94 " fill="none" id="MII_Patho_Finding-backto-ISH_Befund" style="stroke:#181818;stroke-width:1.0;stroke-dasharray:7.0,7.0;"/><polygon fill="none" points="637.75,180.13,631.75,198.13,643.75,198.13,637.75,180.13" style="stroke:#181818;stroke-width:1.0;"/></g><!--link NGS_Bericht to MII_Molekulargenetischer_Befundbericht--><g id="link_NGS_Bericht_MII_Molekulargenetischer_Befundbericht"><path codeLine="35" d="M495,413.87 C495,353.33 495,162 495,162 C495,162 438.67,162 364.64,162 " fill="none" id="NGS_Bericht-to-MII_Molekulargenetischer_Befundbericht" style="stroke:#181818;stroke-width:1.0;"/><polygon fill="none" points="346.64,162,364.64,168,364.64,156,346.64,162" style="stroke:#181818;stroke-width:1.0;"/></g><!--link MII_Molekulargenetischer_Befundbericht to MII_Variante--><!--reverse link MII_Variante to Einfache_Variante--><g id="link_MII_Variante_Einfache_Variante"><path codeLine="45" d="M215.65,315 C262.88,315 310.25,315 310.25,315 C310.25,315 310.25,381.16 310.25,413.98 " fill="none" id="MII_Variante-backto-Einfache_Variante" style="stroke:#181818;stroke-width:1.0;"/><polygon fill="none" points="197.65,315,215.65,321,215.65,309,197.65,315" style="stroke:#181818;stroke-width:1.0;"/></g><!--reverse link MII_Variante to RNA_Seq--><g id="link_MII_Variante_RNA_Seq"><path codeLine="46" d="M178.5,341.13 C178.5,401.67 178.5,575 178.5,575 C178.5,575 235.89,575 276.25,575 " fill="none" id="MII_Variante-backto-RNA_Seq" style="stroke:#181818;stroke-width:1.0;"/><polygon fill="none" points="178.5,323.13,172.5,341.13,184.5,341.13,178.5,323.13" style="stroke:#181818;stroke-width:1.0;"/></g><!--reverse link MII_Variante to RNA_Fusion--><g id="link_MII_Variante_RNA_Fusion"><path codeLine="47" d="M215.62,319 C249.31,319 270.5,319 270.5,319 C270.5,319 270.5,580.14 270.5,652.57 " fill="none" id="MII_Variante-backto-RNA_Fusion" style="stroke:#181818;stroke-width:1.0;"/><polygon fill="none" points="197.62,319,215.62,325,215.62,313,197.62,319" style="stroke:#181818;stroke-width:1.0;"/></g><!--reverse link MII_Variante to DNA_Fusion--><g id="link_MII_Variante_DNA_Fusion"><path codeLine="48" d="M159.5,341.11 C159.5,426.53 159.5,767 159.5,767 C159.5,767 220.62,767 266.23,767 " fill="none" id="MII_Variante-backto-DNA_Fusion" style="stroke:#181818;stroke-width:1.0;"/><polygon fill="none" points="159.5,323.11,153.5,341.11,165.5,341.11,159.5,323.11" style="stroke:#181818;stroke-width:1.0;"/></g><!--reverse link MII_Variante to CopyNumberVariation--><g id="link_MII_Variante_CopyNumberVariation"><path codeLine="49" d="M140.5,341.25 C140.5,437.42 140.5,863 140.5,863 C140.5,863 209.01,863 267.49,863 " fill="none" id="MII_Variante-backto-CopyNumberVariation" style="stroke:#181818;stroke-width:1.0;"/><polygon fill="none" points="140.5,323.25,134.5,341.25,146.5,341.25,140.5,323.25" style="stroke:#181818;stroke-width:1.0;"/></g><!--reverse link MII_Variante to FISH_Befund--><g id="link_MII_Variante_FISH_Befund"><path codeLine="50" d="M121.5,341.17 C121.5,446.8 121.5,959 121.5,959 C121.5,959 219.77,959 282.34,959 " fill="none" id="MII_Variante-backto-FISH_Befund" style="stroke:#181818;stroke-width:1.0;"/><polygon fill="none" points="121.5,323.17,115.5,341.17,127.5,341.17,121.5,323.17" style="stroke:#181818;stroke-width:1.0;"/></g><!--link Einfache_Variante to RNA_Seq--><!--link RNA_Seq to RNA_Fusion--><!--link RNA_Fusion to DNA_Fusion--><!--link DNA_Fusion to CopyNumberVariation--><!--link CopyNumberVariation to FISH_Befund--><!--reverse link MII_Onko_Diagnose to Diagnose--><g id="link_MII_Onko_Diagnose_Diagnose"><path codeLine="60" d="M1160.35,311 C1083.37,311 992.5,311 992.5,311 C992.5,311 992.5,380.13 992.5,413.89 " fill="none" id="MII_Onko_Diagnose-backto-Diagnose" style="stroke:#181818;stroke-width:1.0;stroke-dasharray:7.0,7.0;"/><polygon fill="none" points="1178.35,311,1160.35,305,1160.35,317,1178.35,311" style="stroke:#181818;stroke-width:1.0;"/></g><!--reverse link MII_Onko_Systemische_Therapie to Vortherapie--><g id="link_MII_Onko_Systemische_Therapie_Vortherapie"><path codeLine="61" d="M1132.12,442 C1063.8,442 1009.67,442 1009.67,442 C1009.67,442 1009.67,520.36 1009.67,556.79 " fill="none" id="MII_Onko_Systemische_Therapie-backto-Vortherapie" style="stroke:#181818;stroke-width:1.0;stroke-dasharray:7.0,7.0;"/><polygon fill="none" points="1150.12,442,1132.12,436,1132.12,448,1150.12,442" style="stroke:#181818;stroke-width:1.0;"/></g><!--reverse link MII_Onko_Systemische_Therapie to MTB_Systemische_Therapie--><g id="link_MII_Onko_Systemische_Therapie_MTB_Systemische_Therapie"><path codeLine="62" d="M1270,468.02 C1270,524.6 1270,677 1270,677 C1270,677 1124.72,677 1020.3,677 " fill="none" id="MII_Onko_Systemische_Therapie-backto-MTB_Systemische_Therapie" style="stroke:#181818;stroke-width:1.0;stroke-dasharray:7.0,7.0;"/><polygon fill="none" points="1270,450.02,1264,468.02,1276,468.02,1270,450.02" style="stroke:#181818;stroke-width:1.0;"/></g><!--link ISH_Befund to IHC_Befund--><!--link Diagnose to Vortherapie--><!--link Vortherapie to MTB_Systemische_Therapie--><!--link ISH_Befund to MII_MTB_Neuprofilierungen--><!--link MII_Modul_Molekulares_Tumorboard to MII_Modul_Biobank--><!--link MII_Modul_Molekulares_Tumorboard to MII_Modul_Onkologie--><!--link MTB_Systemische_Therapie to MII_Modul_Onkologie--><!--link Diagnose to MII_Modul_Onkologie--><!--link MII_Onko_Diagnose to MII_Onko_Systemische_Therapie--><!--SRC=[jLN1Sfim4Btp5RhrXByWbzeEZQUrawazkNGwZ30Bg0X9bM0odgH_rbj_h89Wa2M1tKDzChjlTz_kIa-g94nWYIlqXJ2eJm8GbtN1WmzgyD2pHt1wQZ-2GE1ZYND0syqctlAqeV6Iy0Ip4hq6Y2S_u5WZRH6I9nhzonVmX7KPodC22MGDIzj8_Uk3Mzo8Y9ST9059ZaNjnSKHOIbXUUUSYqRXjuAaAR3lANzXeJ-3d_AMKoWRYcKEUY947GkGLlBNm21s7M-Ydx4acDMWQxkb7rdvtemxfjOLhmdE6LVWTUvFgeQggnyVD0Si25pf45HyQ2ek4uwbjPgdRgcjuRnXTFUsM2nwXmdTFApwVY-i-mVJwYoWJpS6etdSa4xlpQop-xJNZlUz31bksE7TMqWXgyFGpF0l2JmdR5YkIV2Ui0otIncyXlFhxcEyXv-sAMeKuSoqhhtM5HUdNLDfIbtosd97nXA6riuqsWdexltqF42JweJR8EX1hAyYfjhnG2FhV3bjsFinwVV_VH23uFXf0wrErfF0gOOyTZlKsTtv87WquBbLy_x6cz9mMFfLuJpJ2r7fBzf5_bbnwGFiuhV4p38phlem4qdoeWuTjHYuMzEpEHdVphsTen9OygcnEsYq76Q44f0Dq_9WQRM6t0kYU0gFsKfBhEdyp7KTzkUttZl3HNMf1A04PmfS9OqufVob4PrD2xflFgC6UJdgTy1zn8VWJWVHrGSYy3rK_oV9r4vk2HvFi7l4FVEQVZl_0W00]--></g></svg>