<?xml version="1.0" encoding="us-ascii" standalone="no"?><svg xmlns="http://www.w3.org/2000/svg" xmlns:xlink="http://www.w3.org/1999/xlink" contentStyleType="text/css" height="1031px" preserveAspectRatio="none" style="width:1368px;height:1031px;background:#FFFFFF;" version="1.1" viewBox="0 0 1368 1031" width="1368px" zoomAndPan="magnify"><defs/><g><!--cluster MII_Modul_Biobank--><g id="cluster_MII_Modul_Biobank"><path d="M829.5,104 L968.5,104 A3.75,3.75 0 0 1 971,106.5 L978,127.6094 L978.5,127.6094 A2.5,2.5 0 0 1 981,130.1094 L981,207.5 A2.5,2.5 0 0 1 978.5,210 L829.5,210 A2.5,2.5 0 0 1 827,207.5 L827,106.5 A2.5,2.5 0 0 1 829.5,104 " fill="none" style="stroke:#000000;stroke-width:1.5;"/><line style="stroke:#000000;stroke-width:1.5;" x1="827" x2="978" y1="127.6094" y2="127.6094"/><text fill="#000000" font-family="sans-serif" font-size="14" font-weight="bold" lengthAdjust="spacing" textLength="138" x="831" y="120.5332">MII_Modul_Biobank</text></g><!--cluster MII_Modul_Pathologiebefund--><g id="cluster_MII_Modul_Pathologiebefund"><path d="M532.5,6 L739.5,6 A3.75,3.75 0 0 1 742,8.5 L749,29.6094 L761.5,29.6094 A2.5,2.5 0 0 1 764,32.1094 L764,199.5 A2.5,2.5 0 0 1 761.5,202 L532.5,202 A2.5,2.5 0 0 1 530,199.5 L530,8.5 A2.5,2.5 0 0 1 532.5,6 " fill="none" style="stroke:#000000;stroke-width:1.5;"/><line style="stroke:#000000;stroke-width:1.5;" x1="530" x2="749" y1="29.6094" y2="29.6094"/><text fill="#000000" font-family="sans-serif" font-size="14" font-weight="bold" lengthAdjust="spacing" textLength="206" x="534" y="22.5332">MII_Modul_Pathologiebefund</text></g><!--cluster MII_Modul_Molekulargenetischer_Befundbericht--><g id="cluster_MII_Modul_Molekulargenetischer_Befundbericht"><path d="M8.5,112 L354.5,112 A3.75,3.75 0 0 1 357,114.5 L364,135.6094 L364.5,135.6094 A2.5,2.5 0 0 1 367,138.1094 L367,345.5 A2.5,2.5 0 0 1 364.5,348 L8.5,348 A2.5,2.5 0 0 1 6,345.5 L6,114.5 A2.5,2.5 0 0 1 8.5,112 " fill="none" style="stroke:#000000;stroke-width:1.5;"/><line style="stroke:#000000;stroke-width:1.5;" x1="6" x2="364" y1="135.6094" y2="135.6094"/><text fill="#000000" font-family="sans-serif" font-size="14" font-weight="bold" lengthAdjust="spacing" textLength="345" x="10" y="128.5332">MII_Modul_Molekulargenetischer_Befundbericht</text></g><!--cluster MII_Modul_Onkologie--><g id="cluster_MII_Modul_Onkologie"><path d="M1081.5,250 L1235.5,250 A3.75,3.75 0 0 1 1238,252.5 L1245,273.6094 L1358.5,273.6094 A2.5,2.5 0 0 1 1361,276.1094 L1361,483.5 A2.5,2.5 0 0 1 1358.5,486 L1081.5,486 A2.5,2.5 0 0 1 1079,483.5 L1079,252.5 A2.5,2.5 0 0 1 1081.5,250 " fill="none" style="stroke:#000000;stroke-width:1.5;"/><line style="stroke:#000000;stroke-width:1.5;" x1="1079" x2="1245" y1="273.6094" y2="273.6094"/><text fill="#000000" font-family="sans-serif" font-size="14" font-weight="bold" lengthAdjust="spacing" textLength="153" x="1083" y="266.5332">MII_Modul_Onkologie</text></g><!--cluster MII_Modul_Molekulares_Tumorboard--><g id="cluster_MII_Modul_Molekulares_Tumorboard"><path d="M241.5,380 L503.5,380 A3.75,3.75 0 0 1 506,382.5 L513,403.6094 L1010.5,403.6094 A2.5,2.5 0 0 1 1013,406.1094 L1013,1021.5 A2.5,2.5 0 0 1 1010.5,1024 L241.5,1024 A2.5,2.5 0 0 1 239,1021.5 L239,382.5 A2.5,2.5 0 0 1 241.5,380 " fill="none" style="stroke:#000000;stroke-width:1.5;"/><line style="stroke:#000000;stroke-width:1.5;" x1="239" x2="513" y1="403.6094" y2="403.6094"/><text fill="#000000" font-family="sans-serif" font-size="14" font-weight="bold" lengthAdjust="spacing" textLength="261" x="243" y="396.5332">MII_Modul_Molekulares_Tumorboard</text></g><!--cluster MII_MTB_Neuprofilierungen--><g id="cluster_MII_MTB_Neuprofilierungen"><path d="M383.5,526 L581.5,526 A3.75,3.75 0 0 1 584,528.5 L591,549.6094 L758.5,549.6094 A2.5,2.5 0 0 1 761,552.1094 L761,727.5 A2.5,2.5 0 0 1 758.5,730 L383.5,730 A2.5,2.5 0 0 1 381,727.5 L381,528.5 A2.5,2.5 0 0 1 383.5,526 " fill="none" style="stroke:#000000;stroke-width:1.5;"/><line style="stroke:#000000;stroke-width:1.5;" x1="381" x2="591" y1="549.6094" y2="549.6094"/><text fill="#000000" font-family="sans-serif" font-size="14" font-weight="bold" lengthAdjust="spacing" textLength="197" x="385" y="542.5332">MII_MTB_Neuprofilierungen</text></g><g id="elem_Bioprobe"><rect fill="#F1F1F1" height="37.6094" style="stroke:#181818;stroke-width:0.5;" width="71" x="851.5" y="148"/><text fill="#000000" font-family="sans-serif" font-size="14" lengthAdjust="spacing" textLength="57" x="858.5" y="164.5332">Bioprobe</text><line style="stroke:#181818;stroke-width:0.5;" x1="852.5" x2="921.5" y1="169.6094" y2="169.6094"/></g><g id="elem_MII_Pathologie_Befundbericht"><rect fill="#F1F1F1" height="37.6094" style="stroke:#181818;stroke-width:0.5;" width="202" x="546" y="42"/><text fill="#000000" font-family="sans-serif" font-size="14" lengthAdjust="spacing" textLength="188" x="553" y="58.5332">MII_Pathologie_Befundbericht</text><line style="stroke:#181818;stroke-width:0.5;" x1="547" x2="747" y1="63.6094" y2="63.6094"/></g><g id="elem_MII_Patho_Finding"><rect fill="#F1F1F1" height="37.6094" style="stroke:#181818;stroke-width:0.5;" width="131" x="581.5" y="148"/><text fill="#000000" font-family="sans-serif" font-size="14" lengthAdjust="spacing" textLength="117" x="588.5" y="164.5332">MII_Patho_Finding</text><line style="stroke:#181818;stroke-width:0.5;" x1="582.5" x2="711.5" y1="169.6094" y2="169.6094"/></g><g id="elem_MII_Molekulargenetischer_Befundbericht"><rect fill="#F1F1F1" height="37.6094" style="stroke:#181818;stroke-width:0.5;" width="270" x="51" y="148"/><text fill="#000000" font-family="sans-serif" font-size="14" lengthAdjust="spacing" textLength="256" x="58" y="164.5332">MII_Molekulargenetischer_Befundbericht</text><line style="stroke:#181818;stroke-width:0.5;" x1="52" x2="320" y1="169.6094" y2="169.6094"/></g><g id="elem_MII_Variante"><rect fill="#F1F1F1" height="37.6094" style="stroke:#181818;stroke-width:0.5;" width="92" x="95" y="294"/><text fill="#000000" font-family="sans-serif" font-size="14" lengthAdjust="spacing" textLength="78" x="102" y="310.5332">MII_Variante</text><line style="stroke:#181818;stroke-width:0.5;" x1="96" x2="186" y1="315.6094" y2="315.6094"/></g><g id="elem_MII_Onko_Diagnose"><rect fill="#F1F1F1" height="37.6094" style="stroke:#181818;stroke-width:0.5;" width="141" x="1137.5" y="294"/><text fill="#000000" font-family="sans-serif" font-size="14" lengthAdjust="spacing" textLength="127" x="1144.5" y="310.5332">MII_Onko_Diagnose</text><line style="stroke:#181818;stroke-width:0.5;" x1="1138.5" x2="1277.5" y1="315.6094" y2="315.6094"/></g><g id="elem_MII_Onko_Systemische_Therapie"><rect fill="#F1F1F1" height="37.6094" style="stroke:#181818;stroke-width:0.5;" width="225" x="1111.5" y="424"/><text fill="#000000" font-family="sans-serif" font-size="14" lengthAdjust="spacing" textLength="211" x="1118.5" y="440.5332">MII_Onko_Systemische_Therapie</text><line style="stroke:#181818;stroke-width:0.5;" x1="1112.5" x2="1335.5" y1="445.6094" y2="445.6094"/></g><g id="elem_Probe"><rect fill="#F1F1F1" height="37.6094" style="stroke:#181818;stroke-width:0.5;" width="52" x="809" y="424"/><text fill="#000000" font-family="sans-serif" font-size="14" lengthAdjust="spacing" textLength="38" x="816" y="440.5332">Probe</text><line style="stroke:#181818;stroke-width:0.5;" x1="810" x2="860" y1="445.6094" y2="445.6094"/></g><g id="elem_IHC_Befund"><rect fill="#F1F1F1" height="37.6094" style="stroke:#181818;stroke-width:0.5;" width="89" x="684.5" y="424"/><text fill="#000000" font-family="sans-serif" font-size="14" lengthAdjust="spacing" textLength="75" x="691.5" y="440.5332">IHC_Befund</text><line style="stroke:#181818;stroke-width:0.5;" x1="685.5" x2="772.5" y1="445.6094" y2="445.6094"/></g><g id="elem_ISH_Befund"><rect fill="#F1F1F1" height="37.6094" style="stroke:#181818;stroke-width:0.5;" width="88" x="561" y="424"/><text fill="#000000" font-family="sans-serif" font-size="14" lengthAdjust="spacing" textLength="74" x="568" y="440.5332">ISH_Befund</text><line style="stroke:#181818;stroke-width:0.5;" x1="562" x2="648" y1="445.6094" y2="445.6094"/></g><g id="elem_NGS_Bericht"><rect fill="#F1F1F1" height="37.6094" style="stroke:#181818;stroke-width:0.5;" width="95" x="430.5" y="424"/><text fill="#000000" font-family="sans-serif" font-size="14" lengthAdjust="spacing" textLength="81" x="437.5" y="440.5332">NGS_Bericht</text><line style="stroke:#181818;stroke-width:0.5;" x1="431.5" x2="524.5" y1="445.6094" y2="445.6094"/></g><g id="elem_Einfache_Variante"><rect fill="#F1F1F1" height="37.6094" style="stroke:#181818;stroke-width:0.5;" width="130" x="265" y="424"/><text fill="#000000" font-family="sans-serif" font-size="14" lengthAdjust="spacing" textLength="116" x="272" y="440.5332">Einfache_Variante</text><line style="stroke:#181818;stroke-width:0.5;" x1="266" x2="394" y1="445.6094" y2="445.6094"/></g><g id="elem_RNA_Seq"><rect fill="#F1F1F1" height="37.6094" style="stroke:#181818;stroke-width:0.5;" width="75" x="272.5" y="570"/><text fill="#000000" font-family="sans-serif" font-size="14" lengthAdjust="spacing" textLength="61" x="279.5" y="586.5332">RNA_Seq</text><line style="stroke:#181818;stroke-width:0.5;" x1="273.5" x2="346.5" y1="591.6094" y2="591.6094"/></g><g id="elem_RNA_Fusion"><rect fill="#F1F1F1" height="37.6094" style="stroke:#181818;stroke-width:0.5;" width="93" x="263.5" y="668"/><text fill="#000000" font-family="sans-serif" font-size="14" lengthAdjust="spacing" textLength="79" x="270.5" y="684.5332">RNA_Fusion</text><line style="stroke:#181818;stroke-width:0.5;" x1="264.5" x2="355.5" y1="689.6094" y2="689.6094"/></g><g id="elem_DNA_Fusion"><rect fill="#F1F1F1" height="37.6094" style="stroke:#181818;stroke-width:0.5;" width="93" x="263.5" y="766"/><text fill="#000000" font-family="sans-serif" font-size="14" lengthAdjust="spacing" textLength="79" x="270.5" y="782.5332">DNA_Fusion</text><line style="stroke:#181818;stroke-width:0.5;" x1="264.5" x2="355.5" y1="787.6094" y2="787.6094"/></g><g id="elem_CopyNumberVariation"><rect fill="#F1F1F1" height="37.6094" style="stroke:#181818;stroke-width:0.5;" width="152" x="263" y="864"/><text fill="#000000" font-family="sans-serif" font-size="14" lengthAdjust="spacing" textLength="138" x="270" y="880.5332">CopyNumberVariation</text><line style="stroke:#181818;stroke-width:0.5;" x1="264" x2="414" y1="885.6094" y2="885.6094"/></g><g id="elem_FISH_Befund"><rect fill="#F1F1F1" height="37.6094" style="stroke:#181818;stroke-width:0.5;" width="97" x="276.5" y="962"/><text fill="#000000" font-family="sans-serif" font-size="14" lengthAdjust="spacing" textLength="83" x="283.5" y="978.5332">FISH_Befund</text><line style="stroke:#181818;stroke-width:0.5;" x1="277.5" x2="372.5" y1="983.6094" y2="983.6094"/></g><g id="elem_Diagnose"><rect fill="#F1F1F1" height="37.6094" style="stroke:#181818;stroke-width:0.5;" width="74" x="896" y="424"/><text fill="#000000" font-family="sans-serif" font-size="14" lengthAdjust="spacing" textLength="60" x="903" y="440.5332">Diagnose</text><line style="stroke:#181818;stroke-width:0.5;" x1="897" x2="969" y1="445.6094" y2="445.6094"/></g><g id="elem_Vortherapie"><rect fill="#F1F1F1" height="37.6094" style="stroke:#181818;stroke-width:0.5;" width="88" x="889" y="570"/><text fill="#000000" font-family="sans-serif" font-size="14" lengthAdjust="spacing" textLength="74" x="896" y="586.5332">Vortherapie</text><line style="stroke:#181818;stroke-width:0.5;" x1="890" x2="976" y1="591.6094" y2="591.6094"/></g><g id="elem_MTB_Systemische_Therapie"><rect fill="#F1F1F1" height="37.6094" style="stroke:#181818;stroke-width:0.5;" width="195" x="785.5" y="668"/><text fill="#000000" font-family="sans-serif" font-size="14" lengthAdjust="spacing" textLength="181" x="792.5" y="684.5332">MTB_Systemische_Therapie</text><line style="stroke:#181818;stroke-width:0.5;" x1="786.5" x2="979.5" y1="689.6094" y2="689.6094"/></g><g id="elem_MTB_EpisodeOfCare"><rect fill="#F1F1F1" height="37.6094" style="stroke:#181818;stroke-width:0.5;" width="148" x="424" y="570"/><text fill="#000000" font-family="sans-serif" font-size="14" lengthAdjust="spacing" textLength="134" x="431" y="586.5332">MTB_EpisodeOfCare</text><line style="stroke:#181818;stroke-width:0.5;" x1="425" x2="571" y1="591.6094" y2="591.6094"/></g><g id="elem_Kosten&#252;bernahme"><rect fill="#F1F1F1" height="37.6094" style="stroke:#181818;stroke-width:0.5;" width="130" x="607" y="570"/><text fill="#000000" font-family="sans-serif" font-size="14" lengthAdjust="spacing" textLength="116" x="614" y="586.5332">Kosten&#252;bernahme</text><line style="stroke:#181818;stroke-width:0.5;" x1="608" x2="736" y1="591.6094" y2="591.6094"/></g><g id="elem_ResponseBefund"><rect fill="#F1F1F1" height="37.6094" style="stroke:#181818;stroke-width:0.5;" width="123" x="436.5" y="668"/><text fill="#000000" font-family="sans-serif" font-size="14" lengthAdjust="spacing" textLength="109" x="443.5" y="684.5332">ResponseBefund</text><line style="stroke:#181818;stroke-width:0.5;" x1="437.5" x2="558.5" y1="689.6094" y2="689.6094"/></g><g id="elem_Followup"><rect fill="#F1F1F1" height="37.6094" style="stroke:#181818;stroke-width:0.5;" width="70" x="595" y="668"/><text fill="#000000" font-family="sans-serif" font-size="14" lengthAdjust="spacing" textLength="56" x="602" y="684.5332">Followup</text><line style="stroke:#181818;stroke-width:0.5;" x1="596" x2="664" y1="689.6094" y2="689.6094"/></g><!--link MII_Pathologie_Befundbericht to MII_Patho_Finding--><!--reverse link Bioprobe to Probe--><g id="link_Bioprobe_Probe"><path codeLine="27" d="M856.25,204.41 C856.25,255.21 856.25,373.62 856.25,423.98 " fill="none" id="Bioprobe-backto-Probe" style="stroke:#181818;stroke-width:1.0;stroke-dasharray:7.0,7.0;"/><polygon fill="none" points="856.25,186.41,850.25,204.41,862.25,204.41,856.25,186.41" style="stroke:#181818;stroke-width:1.0;"/></g><!--reverse link MII_Patho_Finding to IHC_Befund--><g id="link_MII_Patho_Finding_IHC_Befund"><path codeLine="31" d="M698.5,204.41 C698.5,255.21 698.5,373.62 698.5,423.98 " fill="none" id="MII_Patho_Finding-backto-IHC_Befund" style="stroke:#181818;stroke-width:1.0;stroke-dasharray:7.0,7.0;"/><polygon fill="none" points="698.5,186.41,692.5,204.41,704.5,204.41,698.5,186.41" style="stroke:#181818;stroke-width:1.0;"/></g><!--reverse link MII_Patho_Finding to ISH_Befund--><g id="link_MII_Patho_Finding_ISH_Befund"><path codeLine="32" d="M615.25,204.41 C615.25,255.21 615.25,373.62 615.25,423.98 " fill="none" id="MII_Patho_Finding-backto-ISH_Befund" style="stroke:#181818;stroke-width:1.0;stroke-dasharray:7.0,7.0;"/><polygon fill="none" points="615.25,186.41,609.25,204.41,621.25,204.41,615.25,186.41" style="stroke:#181818;stroke-width:1.0;"/></g><!--link NGS_Bericht to MII_Molekulargenetischer_Befundbericht--><g id="link_NGS_Bericht_MII_Molekulargenetischer_Befundbericht"><path codeLine="35" d="M478,423.59 C478,360.77 478,167 478,167 C478,167 415.7,167 339.32,167 " fill="none" id="NGS_Bericht-to-MII_Molekulargenetischer_Befundbericht" style="stroke:#181818;stroke-width:1.0;"/><polygon fill="none" points="321.32,167,339.32,173,339.32,161,321.32,167" style="stroke:#181818;stroke-width:1.0;"/></g><!--link MII_Molekulargenetischer_Befundbericht to MII_Variante--><!--reverse link MII_Variante to Einfache_Variante--><g id="link_MII_Variante_Einfache_Variante"><path codeLine="45" d="M205.02,326 C249.76,326 293,326 293,326 C293,326 293,390.79 293,423.94 " fill="none" id="MII_Variante-backto-Einfache_Variante" style="stroke:#181818;stroke-width:1.0;"/><polygon fill="none" points="187.02,326,205.02,332,205.02,320,187.02,326" style="stroke:#181818;stroke-width:1.0;"/></g><!--reverse link MII_Variante to RNA_Seq--><g id="link_MII_Variante_RNA_Seq"><path codeLine="46" d="M171.67,350.41 C171.67,413.23 171.67,589 171.67,589 C171.67,589 231.24,589 272.2,589 " fill="none" id="MII_Variante-backto-RNA_Seq" style="stroke:#181818;stroke-width:1.0;"/><polygon fill="none" points="171.67,332.41,165.67,350.41,177.67,350.41,171.67,332.41" style="stroke:#181818;stroke-width:1.0;"/></g><!--reverse link MII_Variante to RNA_Fusion--><g id="link_MII_Variante_RNA_Fusion"><path codeLine="47" d="M156.33,350.06 C156.33,426.27 156.33,687 156.33,687 C156.33,687 218.25,687 263.48,687 " fill="none" id="MII_Variante-backto-RNA_Fusion" style="stroke:#181818;stroke-width:1.0;"/><polygon fill="none" points="156.33,332.06,150.33,350.06,162.33,350.06,156.33,332.06" style="stroke:#181818;stroke-width:1.0;"/></g><!--reverse link MII_Variante to DNA_Fusion--><g id="link_MII_Variante_DNA_Fusion"><path codeLine="48" d="M141,350.09 C141,438.39 141,785 141,785 C141,785 213.35,785 263.37,785 " fill="none" id="MII_Variante-backto-DNA_Fusion" style="stroke:#181818;stroke-width:1.0;"/><polygon fill="none" points="141,332.09,135,350.09,147,350.09,141,332.09" style="stroke:#181818;stroke-width:1.0;"/></g><!--reverse link MII_Variante to CopyNumberVariation--><g id="link_MII_Variante_CopyNumberVariation"><path codeLine="49" d="M125.67,350.29 C125.67,449.86 125.67,883 125.67,883 C125.67,883 201.62,883 262.89,883 " fill="none" id="MII_Variante-backto-CopyNumberVariation" style="stroke:#181818;stroke-width:1.0;"/><polygon fill="none" points="125.67,332.29,119.67,350.29,131.67,350.29,125.67,332.29" style="stroke:#181818;stroke-width:1.0;"/></g><!--reverse link MII_Variante to FISH_Befund--><g id="link_MII_Variante_FISH_Befund"><path codeLine="50" d="M110.33,350.27 C110.33,459.8 110.33,981 110.33,981 C110.33,981 212.95,981 276.29,981 " fill="none" id="MII_Variante-backto-FISH_Befund" style="stroke:#181818;stroke-width:1.0;"/><polygon fill="none" points="110.33,332.27,104.33,350.27,116.33,350.27,110.33,332.27" style="stroke:#181818;stroke-width:1.0;"/></g><!--link Einfache_Variante to RNA_Seq--><!--link RNA_Seq to RNA_Fusion--><!--link RNA_Fusion to DNA_Fusion--><!--link DNA_Fusion to CopyNumberVariation--><!--link CopyNumberVariation to FISH_Befund--><!--reverse link MII_Onko_Diagnose to Diagnose--><g id="link_MII_Onko_Diagnose_Diagnose"><path codeLine="60" d="M1119.29,320 C1044.19,320 954.17,320 954.17,320 C954.17,320 954.17,389.19 954.17,423.78 " fill="none" id="MII_Onko_Diagnose-backto-Diagnose" style="stroke:#181818;stroke-width:1.0;stroke-dasharray:7.0,7.0;"/><polygon fill="none" points="1137.29,320,1119.29,314,1119.29,326,1137.29,320" style="stroke:#181818;stroke-width:1.0;"/></g><!--reverse link MII_Onko_Systemische_Therapie to Vortherapie--><g id="link_MII_Onko_Systemische_Therapie_Vortherapie"><path codeLine="61" d="M1093.2,453 C1026.38,453 972.67,453 972.67,453 C972.67,453 972.67,532.31 972.67,569.8 " fill="none" id="MII_Onko_Systemische_Therapie-backto-Vortherapie" style="stroke:#181818;stroke-width:1.0;stroke-dasharray:7.0,7.0;"/><polygon fill="none" points="1111.2,453,1093.2,447,1093.2,459,1111.2,453" style="stroke:#181818;stroke-width:1.0;"/></g><!--reverse link MII_Onko_Systemische_Therapie to MTB_Systemische_Therapie--><g id="link_MII_Onko_Systemische_Therapie_MTB_Systemische_Therapie"><path codeLine="62" d="M1224,480.28 C1224,539.05 1224,694 1224,694 C1224,694 1081.48,694 980.72,694 " fill="none" id="MII_Onko_Systemische_Therapie-backto-MTB_Systemische_Therapie" style="stroke:#181818;stroke-width:1.0;stroke-dasharray:7.0,7.0;"/><polygon fill="none" points="1224,462.28,1218,480.28,1230,480.28,1224,462.28" style="stroke:#181818;stroke-width:1.0;"/></g><!--link ISH_Befund to IHC_Befund--><!--link Diagnose to Vortherapie--><!--link Vortherapie to MTB_Systemische_Therapie--><!--link ISH_Befund to MII_MTB_Neuprofilierungen--><!--link MII_Modul_Molekulares_Tumorboard to MII_Modul_Biobank--><!--link MII_Modul_Molekulares_Tumorboard to MII_Modul_Onkologie--><!--link MTB_Systemische_Therapie to MII_Modul_Onkologie--><!--link Diagnose to MII_Modul_Onkologie--><!--link MII_Onko_Diagnose to MII_Onko_Systemische_Therapie--><!--SRC=[jLN1Sfim4Btp5RhrXByWbzeEZQUrawazkNGwZ30Bg0X9bM0odgH_rbj_h89Wa2M1tKDzChjlTz_kIa-g94nWYIlqXJ2eJm8GbtN1WmzgyD2pHt1wQZ-2GE1ZYND0syqctlAqeV6Iy0Ip4hq6Y2S_u5WZRH6I9nhzonVmX7KPodC22MGDIzj8_Uk3Mzo8Y9ST9059ZaNjnSKHOIbXUUUSYqRXjuAaAR3lANzXeJ-3d_AMKoWRYcKEUY947GkGLlBNm21s7M-Ydx4acDMWQxkb7rdvtemxfjOLhmdE6LVWTUvFgeQggnyVD0Si25pf45HyQ2ek4uwbjPgdRgcjuRnXTFUsM2nwXmdTFApwVY-i-mVJwYoWJpS6etdSa4xlpQop-xJNZlUz31bksE7TMqWXgyFGpF0l2JmdR5YkIV2Ui0otIncyXlFhxcEyXv-sAMeKuSoqhhtM5HUdNLDfIbtosd97nXA6riuqsWdexltqF42JweJR8EX1hAyYfjhnG2FhV3bjsFinwVV_VH23uFXf0wrErfF0gOOyTZlKsTtv87WquBbLy_x6cz9mMFfLuJpJ2r7fBzf5_bbnwGFiuhV4p38phlem4qdoeWuTjHYuMzEpEHdVphsTen9OygcnEsYq76Q44f0Dq_9WQRM6t0kYU0gFsKfBhEdyp7KTzkUttZl3HNMf1A04PmfS9OqufVob4PrD2xflFgC6UJdgTy1zn8VWJWVHrGSYy3rK_oV9r4vk2HvFi7l4FVEQVZl_0W00]--></g></svg>